<svg version="1.1" xmlns="http://www.w3.org/2000/svg" xmlns:xlink="http://www.w3.org/1999/xlink" x="0px" y="0px"
	 viewBox="0 0 143.3 189.53" style="enable-background:new 0 0 143.3 189.53;" xml:space="preserve">
<style type="text/css">
	.st0{fill:none;}
	.st1{fill:#BD202E;}
	.st2{fill:#BE1E2D;}
	.st3{fill:#130C0E;}
</style>
<g id="Layer_4">
</g>
<g id="Layer_5">
	<g id="Layer_6">
	</g>
	<g id="Layer_7">
		<line class="st0" x1="71.75" y1="33.39" x2="71.75" y2="89.64"/>
		<path class="st1" d="M71.85,57.84c-0.56,0-1.12,0-1.68,0.01c0.42-6.49,0.93-10.29,1.48-10.29c0.55,0,1.06,3.79,1.48,10.28
			C72.71,57.84,72.28,57.84,71.85,57.84z"/>
		<path class="st1" d="M74.3,107.97c0,33.36-1.19,60.41-2.64,60.41c-1.46,0-2.64-27.05-2.64-60.41c0-13.55,0.2-26.06,0.52-36.14
			c0.03-0.76,0.05-1.51,0.08-2.25c0.12-3.52,0.27-6.7,0.43-9.48c0.6,0,1.2-0.01,1.81-0.01c0.47,0,0.94,0,1.41,0
			c0.16,2.79,0.3,5.97,0.43,9.49c0.03,0.74,0.05,1.49,0.08,2.25C74.11,81.91,74.3,94.42,74.3,107.97z"/>
	</g>
	<g id="Layer_8">
		<g>
			<g>
				<path class="st2" d="M73.27,60.1c-0.47,0-0.94,0-1.41,0c-0.61,0-1.21,0-1.81,0.01c0.04-0.78,0.09-1.54,0.13-2.26
					c0.55,0,1.11-0.01,1.68-0.01c0.43,0,0.86,0,1.28,0C73.18,58.56,73.23,59.31,73.27,60.1z"/>
			</g>
		</g>
		<g>
			<path class="st2" d="M67.41,164.73c-4.99-11.86-8.55-43.12-8.55-79.81c0-4.6,0.06-9.12,0.16-13.53c0.02-0.77,0.04-1.53,0.06-2.3
				c0.08-2.9,0.19-5.74,0.32-8.52c1.92-0.16,3.95-0.28,6.08-0.36c-0.19,3.04-0.37,6.14-0.54,9.24c-0.04,0.75-0.08,1.5-0.12,2.26
				c-0.84,16.16-1.32,32.47-1.32,43.99C63.51,136.36,65.07,154.47,67.41,164.73z"/>
			<path class="st2" d="M84.19,58.26c-1.97-0.14-4.01-0.25-6.12-0.32c-1.52-23.36-3.75-43.24-6.22-43.24
				c-2.47,0-4.69,19.88-6.22,43.24c-2.11,0.07-4.15,0.18-6.12,0.32C61.22,24.42,66.1,0,71.85,0C77.6,0,82.48,24.42,84.19,58.26z"/>
			<path class="st2" d="M84.85,84.92c0,36.69-3.56,67.95-8.55,79.81c2.34-10.26,3.9-28.37,3.9-49.02c0-11.52-0.49-27.83-1.32-43.99
				c-0.04-0.75-0.08-1.51-0.12-2.26c-0.16-3.11-0.35-6.2-0.54-9.24c2.13,0.08,4.17,0.2,6.08,0.36c0.13,2.78,0.24,5.62,0.32,8.52
				c0.02,0.76,0.04,1.53,0.06,2.3C84.79,75.79,84.85,80.31,84.85,84.92z"/>
			<g>
				<g>
					<path class="st2" d="M84.3,60.57c-1.92-0.16-3.95-0.28-6.08-0.36c-0.05-0.76-0.09-1.52-0.15-2.27
						c2.11,0.07,4.15,0.18,6.12,0.32C84.23,59.03,84.27,59.8,84.3,60.57z"/>
				</g>
			</g>
			<g>
				<g>
					<path class="st2" d="M65.63,57.95c-0.05,0.75-0.1,1.51-0.15,2.27c-2.13,0.08-4.17,0.2-6.08,0.36c0.03-0.78,0.07-1.54,0.11-2.31
						C61.48,58.12,63.52,58.02,65.63,57.95z"/>
				</g>
			</g>
		</g>
		<g>
			<g>
				<path class="st3" d="M78.07,57.95c-1.61-0.06-3.26-0.09-4.94-0.1c0.04,0.72,0.09,1.47,0.13,2.26c1.69,0.01,3.35,0.05,4.95,0.12
					C78.17,59.45,78.13,58.7,78.07,57.95z M84.19,58.26c0.04,0.77,0.08,1.53,0.11,2.31c9.48,0.77,16,2.39,16,4.27
					c0,1.86-6.38,3.47-15.68,4.25c-1.85,0.16-3.81,0.28-5.86,0.37c-1.64,0.07-3.33,0.11-5.06,0.13c-0.61,0-1.22,0.01-1.84,0.01
					c-0.75,0-1.5,0-2.24-0.01c-1.6-0.02-3.16-0.06-4.67-0.12c-2.05-0.09-4.02-0.21-5.86-0.37c-9.31-0.78-15.69-2.39-15.69-4.25
					c0-1.88,6.53-3.5,16.01-4.27c0.03-0.78,0.07-1.54,0.11-2.31c-13.78,0.98-23.62,3.56-23.62,6.58c0,2.99,9.61,5.54,23.13,6.55
					c1.87,0.14,3.81,0.25,5.81,0.33c1.53,0.06,3.11,0.1,4.71,0.12c0.77,0.01,1.54,0.02,2.32,0.02c0.65,0,1.28,0,1.92-0.01
					c1.74-0.02,3.44-0.06,5.1-0.12c2-0.08,3.94-0.19,5.8-0.33c13.52-1.01,23.12-3.56,23.12-6.55
					C107.81,61.82,97.97,59.24,84.19,58.26z M65.63,57.95c-0.05,0.75-0.1,1.51-0.15,2.27c1.48-0.06,3-0.09,4.56-0.11
					c0.04-0.78,0.09-1.54,0.13-2.26C68.64,57.86,67.12,57.89,65.63,57.95z"/>
			</g>
		</g>
	</g>
</g>
<g id="Layer_3">
	<path class="st2" d="M68.7,113.37c0,0-45.47-25.09-54.09-92.92c0,0-3.89,6.87-5.55,10.74c0,0,8.36,63.19,56.58,90.88l5.11,1.15
		L68.7,113.37z"/>
	<path class="st2" d="M69.92,127.8l-0.49,8.82c0,0-45.21-6.01-66.6-87.79L7.39,35.1C7.39,35.1,16.01,104.74,69.92,127.8z"/>
	<path class="st2" d="M68.63,140.34l-0.42,9.64c0,0-47.52-7.48-68.21-72.25l1.83-17.89C1.83,59.84,15.33,119.64,68.63,140.34z"/>
	<path class="st2" d="M67.73,155.02l-0.63,7.06c0,0-26.41-0.01-59.43-39.87c0,0-7.77-21.86-6.38-28.65c0,0,19.91,47.6,65.97,58.88
		L67.73,155.02z"/>
	<path class="st2" d="M26.06,160.58c0,0,27.88,19.78,54.68,2.96l-8.11,0.34c0,0-1.27-0.41-9.82-0.35
		c-12.83,0.09-32.9-5.86-53.1-36.14C9.71,127.39,17.34,153.72,26.06,160.58z"/>
	<path class="st2" d="M117.58,160.58c0,0-27.88,19.78-54.68,2.96l8.11,0.34c0,0,1.27-0.41,9.82-0.35
		c12.83,0.09,32.9-5.86,53.1-36.14C133.93,127.39,126.3,153.72,117.58,160.58z"/>
	<path class="st2" d="M76.79,168.55c0,0-18.18,10.87-42.33-0.81c0,0,10.13,12.15,14.8,12.93c0,0,20.58-0.38,32.83-10.98
		L76.79,168.55z"/>
	<path class="st2" d="M79.75,173.33c0,0-6.08,7.94-26.64,9.66c0,0,4.52,4.05,8.41,4.05c0,0,18.54-8.1,21.81-13.71H79.75z"/>
	<path class="st2" d="M64.79,187.89c0,0,0.31,1.64,4.44,1.64c0,0,21.55-16.51,23.73-20.1l-1.91-0.45
		C91.05,168.99,77.8,182.05,64.79,187.89z"/>
	<path class="st2" d="M66.09,168.66c0,0,17.97,10.77,42.12-0.91c0,0-10.13,12.15-14.8,12.93c0,0-19.75-0.49-31.99-11.08
		L66.09,168.66z"/>
	<path class="st2" d="M62.92,173.33c0,0,6.08,7.94,26.64,9.66c0,0-4.52,4.05-8.41,4.05c0,0-18.54-8.1-21.81-13.71H62.92z"/>
	<path class="st2" d="M77.87,187.89c0,0-0.31,1.64-4.44,1.64c0,0-22.19-16.9-24.37-20.49l2.36-0.45
		C51.41,168.6,64.86,182.05,77.87,187.89z"/>
	<path class="st2" d="M74.6,113.37c0,0,45.47-25.09,54.09-92.92c0,0,3.89,6.87,5.55,10.74c0,0-8.36,63.19-56.58,90.88l-5.11,1.15
		L74.6,113.37z"/>
	<path class="st2" d="M73.38,127.8l0.49,8.82c0,0,45.21-6.01,66.6-87.79l-4.56-13.73C135.91,35.1,127.28,104.74,73.38,127.8z"/>
	<path class="st2" d="M74.67,140.34l0.42,9.64c0,0,47.52-7.48,68.21-72.25l-1.83-17.89C141.46,59.84,127.96,119.64,74.67,140.34z"/>
	<path class="st2" d="M75.57,155.02l0.63,7.06c0,0,26.41-0.01,59.43-39.87c0,0,7.77-21.86,6.38-28.65c0,0-19.91,47.6-65.97,58.88
		L75.57,155.02z"/>
</g>
</svg>
